HIERARCHY
ROOT SimulationBone
{
	OFFSET 0.000000 0.000000 0.000000
	CHANNELS 6 Xposition Yposition Zposition Zrotation Yrotation Xrotation 
	JOINT Hips
	{
		OFFSET 0.000000 0.000000 0.000000
		CHANNELS 6 Xposition Yposition Zposition Zrotation Yrotation Xrotation 
		JOINT RightUpLeg
		{
			OFFSET 0.103457 1.857822 10.548516
			CHANNELS 3 Zrotation Yrotation Xrotation
			JOINT RightLeg
			{
				OFFSET 43.500008 -0.000031 0.000015
				CHANNELS 3 Zrotation Yrotation Xrotation
				JOINT RightFoot
				{
					OFFSET 42.372192 0.000027 -0.000009
					CHANNELS 3 Zrotation Yrotation Xrotation
					JOINT RightToe
					{
						OFFSET 17.299999 0.000000 -0.000004
						CHANNELS 3 Zrotation Yrotation Xrotation
						End Site
						{
							OFFSET 0.000000 0.000000 0.000000
						}
					}
				}
			}
		}
		JOINT LeftUpLeg
		{
			OFFSET 0.103460 1.857822 -10.548513
			CHANNELS 3 Zrotation Yrotation Xrotation
			JOINT LeftLeg
			{
				OFFSET 43.500038 -0.000015 -0.000002
				CHANNELS 3 Zrotation Yrotation Xrotation
				JOINT LeftFoot
				{
					OFFSET 42.372269 -0.000019 0.000014
					CHANNELS 3 Zrotation Yrotation Xrotation
					JOINT LeftToe
					{
						OFFSET 17.300005 -0.000001 0.000011
						CHANNELS 3 Zrotation Yrotation Xrotation
						End Site
						{
							OFFSET 0.000000 0.000000 0.000000
						}
					}
				}
			}
		}
		JOINT Spine
		{
			OFFSET 6.901966 -2.603743 -0.000003
			CHANNELS 3 Zrotation Yrotation Xrotation
			JOINT Spine1
			{
				OFFSET 12.588103 0.000012 0.000008
				CHANNELS 3 Zrotation Yrotation Xrotation
				JOINT Spine2
				{
					OFFSET 12.343199 0.000004 0.000007
					CHANNELS 3 Zrotation Yrotation Xrotation
					JOINT Neck
					{
						OFFSET 25.832901 -0.000008 -0.000001
						CHANNELS 3 Zrotation Yrotation Xrotation
						JOINT Head
						{
							OFFSET 11.766611 0.000029 -0.000004
							CHANNELS 3 Zrotation Yrotation Xrotation
							End Site
							{
								OFFSET 0.000000 0.000000 0.000000
							}
						}
					}
					JOINT RightShoulder
					{
						OFFSET 19.745907 -1.480370 6.000077
						CHANNELS 3 Zrotation Yrotation Xrotation
						JOINT RightArm
						{
							OFFSET 11.284128 -0.000004 -0.000015
							CHANNELS 3 Zrotation Yrotation Xrotation
							JOINT RightForeArm
							{
								OFFSET 33.000065 0.000010 0.000016
								CHANNELS 3 Zrotation Yrotation Xrotation
								JOINT RightHand
								{
									OFFSET 25.200001 0.000010 0.000006
									CHANNELS 3 Zrotation Yrotation Xrotation
									End Site
									{
										OFFSET 0.000000 0.000000 0.000000
									}
								}
							}
						}
					}
					JOINT LeftShoulder
					{
						OFFSET 19.746094 -1.480385 -6.000086
						CHANNELS 3 Zrotation Yrotation Xrotation
						JOINT LeftArm
						{
							OFFSET 11.284142 -0.000011 -0.000013
							CHANNELS 3 Zrotation Yrotation Xrotation
							JOINT LeftForeArm
							{
								OFFSET 33.000092 0.000004 0.000015
								CHANNELS 3 Zrotation Yrotation Xrotation
								JOINT LeftHand
								{
									OFFSET 25.199759 0.000141 0.000412
									CHANNELS 3 Zrotation Yrotation Xrotation
									End Site
									{
										OFFSET 0.000000 0.000000 0.000000
									}
								}
							}
						}
					}
				}
			}
		}
	}
}
MOTION
Frames: 13
Frame Time: 0.033333
-21.510612 0.000000 593.895717 0.000000 182.255498 0.000000 -2.444617 94.094856 0.635570 88.530947 0.976982 178.310914 175.596978 3.352004 174.692989 -19.008147 -1.943325 0.346122 79.834543 0.678545 3.326753 21.454557 0.003108 0.000017 -178.316022 5.855300 -169.588707 -48.790985 0.849863 -2.891771 69.932599 3.885721 5.342296 21.454555 -0.003092 -0.000001 7.132384 -0.980229 1.100675 4.233670 -1.999597 2.165438 3.915604 -1.986622 2.177469 2.743816 -15.307829 -2.742137 -18.857326 7.969871 -8.032787 -167.546630 -73.181352 -14.171190 2.279400 56.708779 19.076163 -70.531778 -17.678577 2.736978 3.395686 -7.387337 23.502940 -159.440712 83.055674 22.374310 4.236090 -61.805938 -52.692160 -56.197359 16.071731 -2.032523 1.566196 28.404983 1.988914 
-25.543510 0.000000 594.276421 0.000000 182.161962 0.000000 -3.022773 93.739372 0.827161 88.250900 0.918758 179.968730 177.336409 3.360505 175.006303 -19.425557 -2.022142 1.106355 81.217165 0.193992 3.680809 21.454558 0.003108 0.000017 177.689065 5.634094 -170.957463 -50.447098 2.115164 -0.509566 75.075097 1.283543 3.342674 21.454545 -0.003093 0.000000 7.323342 -0.935503 0.881939 4.620105 -1.905106 1.726377 4.301989 -1.894784 1.737846 2.530413 -16.415571 -3.035351 -21.324073 8.788448 -9.082649 -167.062083 -73.732732 -14.667316 -2.639738 54.386556 14.337359 -79.887791 -13.145000 2.820264 -0.459057 -4.382804 36.647691 -156.610487 82.832921 25.239883 12.761823 -57.553660 -62.195341 -61.399630 14.886530 -2.143264 -1.851516 30.668082 -4.018126 
-29.588484 0.000000 594.679202 0.000000 182.081831 0.000000 -3.620558 93.332848 1.041041 87.969758 0.734708 -178.494672 179.422635 3.316894 175.619559 -19.185742 -2.312358 1.749145 82.356994 -0.287467 3.647779 21.454558 0.003108 0.000017 173.147577 4.958694 -172.450146 -51.298761 1.910341 0.907047 79.754008 -0.548076 0.550238 21.454551 -0.003092 0.000000 7.543579 -0.920530 0.564947 5.066114 -1.864672 1.089474 4.747886 -1.858195 1.100713 2.071164 -16.172358 -3.101733 -23.376785 8.616533 -9.318036 -168.993374 -74.752596 -12.685922 -6.059178 52.757337 8.120364 -88.275428 -8.190365 2.843084 -4.620310 -1.820869 48.247278 -146.185077 82.778273 35.781015 18.429247 -53.828451 -67.794962 -67.196248 12.717002 -2.220062 -4.298702 31.338646 -6.055066 
-33.667662 0.000000 595.108136 0.000000 182.002108 0.000000 -4.148203 92.922592 1.290720 87.676027 0.417626 -177.330491 -178.281215 3.267504 175.950741 -18.637501 -2.632104 2.402136 82.925805 -0.824235 3.299039 21.454562 0.003108 0.000018 168.407658 4.041107 -174.541987 -51.008997 1.213722 1.162489 82.665465 -1.022036 -0.803563 21.454551 -0.003091 0.000000 7.771406 -0.964595 0.062802 5.530069 -1.931010 0.079708 5.211806 -1.930629 0.091369 1.387574 -14.852509 -2.601792 -25.139478 7.958003 -8.576375 -170.701317 -76.141439 -10.940601 -7.548184 52.497237 1.352025 -94.308643 -3.640031 2.794073 -7.213877 -0.583660 50.988766 -135.276623 83.412210 46.768429 22.224613 -51.676395 -71.107979 -71.627907 10.653592 -2.257376 -5.736726 29.289569 -6.955614 
-37.796830 0.000000 595.557811 0.000000 181.931532 0.000000 -4.600771 92.578941 1.600364 87.241159 0.156445 -176.316272 -176.331114 3.034806 176.387299 -18.506744 -3.014613 2.902963 82.759544 -1.297883 2.653907 21.454557 0.003108 0.000018 163.815626 2.647095 -176.852312 -49.155038 0.527521 1.348168 84.344579 -1.318086 -1.738349 21.454555 -0.003092 0.000000 7.994716 -1.000662 -0.630090 5.988731 -1.967467 -1.311072 5.670520 -1.975484 -1.299170 0.262828 -13.394071 -1.646958 -26.630906 7.396529 -7.371271 -175.994823 -77.726118 -5.548782 -6.553909 53.065054 -1.996678 -97.831620 -2.319176 2.859568 -9.346112 -2.267433 44.066328 -120.377699 84.402553 61.717671 23.210170 -51.427418 -73.120829 -73.832699 10.090638 -2.309786 -8.320354 25.316619 -10.188279 
-41.986473 0.000000 596.025535 0.000000 181.890316 0.000000 -4.873043 92.292587 1.877286 86.807110 -0.179588 -175.471364 -174.477046 2.693405 176.447788 -18.668860 -3.443038 3.663627 81.718391 -2.016978 1.681394 21.454560 0.003108 0.000018 159.786306 1.319900 -179.466048 -45.785060 0.505578 1.362883 85.233849 -1.556703 -2.936196 21.454551 -0.003091 -0.000001 8.256836 -1.064008 -1.367344 6.526913 -2.049413 -2.792750 6.208976 -2.066371 -2.780337 -1.641830 -11.767969 -0.637479 -27.711689 6.736946 -6.034173 172.318405 -79.299186 6.313507 -3.073609 54.609763 -4.201085 -99.636149 -1.597273 2.889891 -9.238732 -4.206418 32.924182 -106.726227 84.476285 75.432152 21.450368 -52.158579 -72.636419 -74.946751 9.950205 -2.346725 -10.393941 20.758500 -14.307130 
-46.233499 0.000000 596.506148 0.000000 181.878250 0.000000 -4.956708 92.055443 2.075330 86.413139 -0.261576 -174.707582 -172.860982 2.087492 176.025395 -19.469010 -3.377235 4.928724 80.391286 -3.344153 -0.201622 21.454558 0.003108 0.000017 156.458529 -0.086807 179.097751 -40.896478 0.310447 0.440006 84.578028 -0.965402 -3.026001 21.454551 -0.003093 0.000000 8.508916 -1.010656 -2.060267 7.040557 -1.894365 -4.178597 6.723196 -1.919678 -4.167112 -3.652020 -11.566780 0.166202 -28.680586 6.857346 -5.513185 158.741301 -79.929360 20.066993 0.726083 56.644309 -4.985711 -98.189864 -1.620079 2.826788 -10.234000 -7.330453 21.392204 -102.042876 83.949193 80.178389 17.633494 -53.273590 -69.895887 -74.964270 10.153340 -2.361566 -11.170435 18.154972 -16.358218 
-50.542541 0.000000 597.012859 0.000000 181.888848 0.000000 -4.837138 91.869148 2.200625 86.203080 0.276639 -174.240700 -171.314982 0.842896 174.973245 -20.711306 -3.015365 6.509388 78.437838 -4.985544 -2.098420 21.454557 0.003108 0.000017 154.220330 -1.662292 176.970816 -34.286897 1.692477 0.175707 81.431325 -0.877614 -2.906249 21.454551 -0.003092 0.000000 8.699346 -0.759205 -2.494115 7.416277 -1.357278 -5.031971 7.099430 -1.387738 -5.023719 -4.735560 -12.344308 0.405196 -29.503726 6.865655 -5.620855 149.010002 -79.569983 29.944031 2.976135 58.486227 -5.027672 -93.563299 -2.467873 2.678768 -9.828123 -9.427910 11.184518 -107.591694 83.006893 74.680981 13.271245 -54.067125 -66.118178 -73.606900 10.895272 -2.356134 -10.579615 17.724489 -15.820407 
-54.938716 0.000000 597.556517 0.000000 181.951318 0.000000 -4.579449 91.272797 2.212351 85.919502 0.859505 -174.286628 -170.160790 -0.331497 173.366430 -22.967174 -2.309382 8.381230 76.944991 -6.959004 -4.178922 21.454558 0.003108 0.000014 152.771879 -3.144807 175.613043 -27.095191 3.154221 0.810825 77.823886 -0.507488 0.686325 21.454553 -0.003091 -0.000000 8.780806 -0.457577 -2.690235 7.566426 -0.738540 -5.404635 7.249842 -0.771254 -5.400102 -5.245034 -13.639999 0.406212 -30.350840 6.749951 -5.976573 149.476095 -79.017960 29.506223 1.753982 59.175878 -1.597157 -87.027907 -7.220748 2.719452 -5.830018 -11.209421 4.151560 -115.611306 81.813597 66.700813 8.676937 -55.016778 -61.315407 -70.888471 11.957126 -2.317103 -9.928827 16.814812 -15.603106 
-59.429749 0.000000 598.075049 0.000000 182.056056 0.000000 -4.197431 90.251907 2.186176 86.136175 2.000798 -174.415845 -169.099433 -2.042802 171.882885 -26.568898 -1.154867 10.151889 75.958226 -9.288549 -7.481145 21.454563 0.003107 0.000017 152.305132 -5.104293 177.748501 -22.234398 3.521165 1.575090 74.558338 -0.531397 2.437294 21.454551 -0.003092 0.000000 8.859430 -0.016186 -2.752198 7.702452 0.150595 -5.499301 7.385978 0.117297 -5.500111 -4.562564 -14.712803 0.074131 -30.649203 6.282510 -6.252729 151.696712 -78.334278 27.296535 0.088465 59.425596 3.474872 -79.410634 -12.794411 2.774620 -1.438972 -12.997470 2.416898 -127.667765 80.922360 54.591411 4.658591 -55.662794 -56.435650 -67.199704 13.519697 -2.275466 -8.606287 14.343737 -14.856659 
-64.024499 0.000000 598.606635 0.000000 182.146223 0.000000 -4.031247 89.014702 2.305302 87.031857 4.294381 -174.780668 -168.926807 -4.908402 171.214934 -32.862335 0.198657 11.081451 74.812237 -11.618060 -12.289491 21.454558 0.003109 0.000015 151.802594 -8.416596 -175.598481 -27.133628 2.182055 1.347402 74.901378 -3.301156 -7.744428 21.454555 -0.003093 0.000000 8.994045 0.673059 -2.631819 7.941230 1.524909 -5.211681 7.624463 1.493313 -5.220765 -2.135348 -15.383671 -0.476037 -31.003359 5.454225 -6.232344 151.200253 -77.734233 27.835814 -0.700270 59.880801 9.624846 -70.795683 -17.616012 2.743700 2.658748 -13.912842 4.570674 -136.555426 80.650334 45.613827 -0.149588 -56.939551 -51.442929 -62.313967 15.187732 -2.198672 -7.179850 12.729480 -13.057800 
-68.704624 0.000000 599.156957 0.000000 182.294355 0.000000 -3.831788 86.960899 2.400193 89.005794 6.334361 -175.783238 -169.157148 -7.704805 170.915812 -42.855274 1.467176 12.015171 74.460441 -14.164141 -17.905899 21.454568 0.003105 0.000020 151.178451 -11.277605 -174.074980 -38.003299 0.750098 1.234524 83.171220 -2.552505 -7.658820 21.454550 -0.003092 0.000000 9.368690 1.353269 -2.372421 8.668921 2.880313 -4.638188 8.351528 2.852146 -4.655462 0.346925 -15.909703 -0.785714 -30.980092 4.756856 -5.938455 153.367404 -76.966731 25.679831 -1.534144 59.673170 16.757200 -61.385280 -20.730305 2.578174 5.814281 -13.346639 9.658355 -144.221903 80.328864 37.858745 -6.956086 -57.222225 -45.758852 -57.526455 16.590301 -2.115485 -6.187675 12.161022 -13.238306 
-73.465229 0.000000 599.750007 0.000000 182.484158 0.000000 -3.407549 85.443817 2.487460 91.291467 8.698221 -176.652026 -169.805415 -10.947801 171.454018 -53.514518 2.313300 12.701011 72.165211 -15.664480 -19.470441 21.454557 0.003109 0.000021 153.680677 -12.215392 -173.287719 -44.473158 3.475312 0.195052 88.638992 -1.699902 -8.689904 21.454551 -0.003092 0.000000 9.883986 2.190795 -2.119967 9.682109 4.551187 -4.052093 9.363795 4.526516 -4.079500 1.072497 -15.105611 -0.744017 -29.423809 2.971170 -4.677535 157.918768 -76.228681 21.089509 -2.482134 60.061371 22.476944 -52.627554 -21.768062 2.323537 5.976922 -9.603846 18.292165 -154.924332 78.165600 27.047378 -13.803800 -54.049432 -40.139509 -55.101199 17.692801 -2.103255 -8.044648 14.057650 -18.296992 
